# xmcd
#
# Track frame offsets:
#	150
#	14690
#	29253
#	41288
#	56816
#	72145
#	86246
#	98371
#	121369
#	132700
#	146561
#	168976
#	187439
#	198912
#	214506
#
# Disc length: 3063 seconds
#
# Revision: 1
# Processed by: cddbd v1.4PL0 Copyright (c) Steve Scherf et al.
# Submitted via: audiograbber 1.80.04
#
DISCID=dc0bf50f
DTITLE=Gregg Martinez - Christmas
DYEAR=2002
DGENRE=Blues
TTITLE0=Do You Hear What I Hear
TTITLE1=The Christmas Song
TTITLE2=Away in a Manger
TTITLE3=Silent Night
TTITLE4=Mary Did You Know
TTITLE5=O Come All Ye Faithful
TTITLE6=Please Come Home for Christmas
TTITLE7=Merry Christmas Baby
TTITLE8=Hark the Herals Angels Sing
TTITLE9=Let it Snow, Let it Snow, Let it Snow
TTITLE10=O Holy Night
TTITLE11=What Child is This
TTITLE12=I'll be Home For Christmas
TTITLE13=One Bright Star
TTITLE14=Hidden Track
EXTD=
EXTT0=
EXTT1=
EXTT2=
EXTT3=
EXTT4=
EXTT5=
EXTT6=
EXTT7=
EXTT8=
EXTT9=
EXTT10=
EXTT11=
EXTT12=
EXTT13=
EXTT14=
PLAYORDER=
